<?xml version="1.0" encoding="UTF-8" standalone="no"?>
<svg xmlns:inkscape="http://www.inkscape.org/namespaces/inkscape" xmlns:rdf="http://www.w3.org/1999/02/22-rdf-syntax-ns#" xmlns="http://www.w3.org/2000/svg" sodipodi:docname="crucendo_logo.svg" xmlns:sodipodi="http://sodipodi.sourceforge.net/DTD/sodipodi-0.dtd" inkscape:export-filename="C:\Users\trist\Pictures\TheCrucialTeam\SVG\crucendo_logo.png" height="77.021mm" width="246.93mm" inkscape:export-xdpi="534.73999" version="1" inkscape:export-ydpi="534.73999" xmlns:cc="http://creativecommons.org/ns#" xmlns:xlink="http://www.w3.org/1999/xlink" inkscape:version="0.91 r13725" viewBox="0 0 797.55481 247.04533" xmlns:dc="http://purl.org/dc/elements/1.1/">
 <sodipodi:namedview fit-margin-left="10" inkscape:showpageshadow="false" inkscape:zoom="0.81620549" borderopacity="1" inkscape:current-layer="svg3336" inkscape:cx="455.86078" inkscape:cy="124.29623" borderlayer="false" inkscape:window-maximized="1" showgrid="false" fit-margin-right="10" bordercolor="#666665" inkscape:window-x="-8" guidetolerance="10" objecttolerance="10" inkscape:window-y="-8" fit-margin-bottom="10" inkscape:window-width="1920" inkscape:pageopacity="0" inkscape:pageshadow="2" pagecolor="#efefef" gridtolerance="10" inkscape:window-height="1017" showborder="false" fit-margin-top="10"/>
 <g fill="#fff">
  <g style="shape-rendering:geometricPrecision" transform="matrix(.28709 0 0 .28709 16.222 18.678)">
   <path d="m376.96 44.443a320.96 320.96 0 0 0 -320.96 320.96 320.96 320.96 0 0 0 59.23 185.1 321.06 321.06 0 0 1 -27.824 -129.77 321.06 321.06 0 0 1 321.06 -321.06 321.06 321.06 0 0 1 261.21 135.07 320.96 320.96 0 0 0 -292.72 -190.3z" inkscape:connector-curvature="0" fill="#fff"/>
  </g>
  <g style="shape-rendering:geometricPrecision" transform="matrix(.28709 0 0 .28709 16.222 18.678)">
   <path d="m396.63 122.99a281.97 281.97 0 0 0 -281.97 281.97 281.97 281.97 0 0 0 262.38 280.99 281.11 281.11 0 0 1 -203.97 -270.07 281.11 281.11 0 0 1 281.11 -281.12 281.11 281.11 0 0 1 27.283 1.3652 281.97 281.97 0 0 0 -84.832 -13.143z" inkscape:connector-curvature="0" fill="#fff"/>
  </g>
  <g transform="matrix(.28709 0 0 .28709 16.222 18.678)">
   <path style="shape-rendering:geometricPrecision" d="m262.92 272.96a234.09 234.09 0 0 0 -60.98 157.17 234.09 234.09 0 0 0 234.09 234.09 234.09 234.09 0 0 0 207.25 -125.61 232.98 232.98 0 0 1 -178.56 83.37 232.98 232.98 0 0 1 -232.98 -232.99 232.98 232.98 0 0 1 31.18 -116.03z" inkscape:connector-curvature="0" fill="#fff"/>
  </g>
  <path d="m249.07 136.9q-10.708 0.31039-18.623 5.8974-7.9149 5.587-11.174 15.364v50.283h-10.553v-80.856h9.9324v19.399q4.5006-9.3117 12.105-14.588 7.6045-5.2766 16.295-5.2766 1.2416 0 2.0175 0.1552v9.6221z"/>
  <path d="m284.02 210q-13.192 0-19.71-8.6909-6.363-8.8461-6.363-26.228v-47.49h10.553v45.627q0 27.469 18.779 27.469 4.6558 0 9.1565-1.5519 4.5006-1.552 8.2253-4.5006 3.8799-2.9487 6.8286-6.9838 3.1039-4.0351 4.9662-9.1565v-50.904h10.553v67.199q0 4.3454 3.7247 4.3454v9.3117q-1.8623 0.31039-3.1039 0.31039-1.0864 0-1.5519 0-3.7247-0.15519-6.0526-2.6383t-2.3279-6.6734v-9.3117q-5.2766 9.4669-14.433 14.743-9.0013 5.1214-19.244 5.1214z"/>
  <path d="m340.73 167.79q0-8.5357 2.9487-16.14 2.9487-7.6045 8.2253-13.192 5.4318-5.7422 12.881-9.0013 7.4493-3.2591 16.451-3.2591 11.484 0 20.02 5.2766 8.5357 5.1214 12.881 13.968l-10.25 3.26q-3.4143-6.2078-9.6221-9.6221-6.0526-3.5695-13.502-3.5695-6.2078 0-11.64 2.4831-5.2766 2.4831-9.3117 6.8286-3.8799 4.1902-6.2078 10.088-2.1727 5.8974-2.1727 12.881 0 6.8286 2.3279 12.881 2.3279 6.0526 6.363 10.553 4.0351 4.3454 9.3117 6.9838 5.4318 2.4831 11.484 2.4831 3.8799 0 7.6045-1.0864 3.8799-1.0864 7.139-2.9487 3.2591-2.0175 5.587-4.5006t3.2591-5.2766l10.398 3.1039q-1.7071 4.3454-4.9662 8.0701-3.2591 3.5695-7.7597 6.363-4.3454 2.6383-9.7773 4.0351-5.2766 1.552-11.019 1.552-8.8461 0-16.295-3.2591-7.4493-3.4143-12.881-9.1565-5.4318-5.8974-8.5357-13.502-2.9487-7.6045-2.9487-16.295z"/>
  <path d="m460.94 210q-8.8461 0-16.295-3.2591-7.2941-3.4143-12.726-9.1565-5.4318-5.8974-8.5357-13.502-2.9487-7.6045-2.9487-16.295 0-8.5357 2.9487-15.985 3.1039-7.6045 8.3805-13.192 5.4318-5.7422 12.881-9.0013 7.4493-3.4143 16.14-3.4143 8.8461 0 16.14 3.4143 7.4493 3.2591 12.726 9.0013 5.2766 5.7422 8.2253 13.192 2.9487 7.4494 2.9487 15.83 0 1.2416 0 2.4831 0 1.2416-0.1552 1.7071h-69.217q0.46559 6.5182 2.9487 12.105 2.6383 5.4318 6.6734 9.4669t9.1565 6.363q5.2766 2.1727 11.174 2.1727 3.8799 0 7.7597-1.0864 3.8799-1.0864 7.139-2.9487t5.8974-4.5006q2.6383-2.7935 4.035-6.0526l9.1565 2.4831q-1.8623 4.5006-5.2766 8.2253-3.4143 3.5695-7.9149 6.363-4.5006 2.6383-9.9325 4.0351-5.4318 1.552-11.329 1.552zm29.797-46.248q-0.46559-6.5182-3.1039-11.795-2.4831-5.4318-6.5182-9.3117-3.8799-3.8799-9.1565-6.0526-5.1214-2.1727-11.019-2.1727-5.8974 0-11.174 2.1727t-9.3117 6.0526q-3.8799 3.8799-6.363 9.3117-2.3279 5.4318-2.7935 11.795h59.44z"/>
  <path d="m580.68 208.45h-10.553v-45.162q0-14.433-4.3454-20.951-4.1903-6.5182-13.036-6.5182-4.6558 0-9.3117 1.7071-4.6558 1.7071-8.6909 4.811-3.8799 3.1039-6.9838 7.4493-3.1039 4.1903-4.5006 9.1565v49.507h-10.553v-80.856h9.6221v18.313q4.9662-8.8461 14.123-14.278 9.3117-5.4318 20.175-5.4318 6.6734 0 11.329 2.4831 4.6558 2.4831 7.4493 6.9838 2.7935 4.5006 4.0351 11.019 1.2416 6.5182 1.2416 14.433v47.334z"/>
  <path d="m631.99 210q-8.3805 0-15.519-3.4143-7.139-3.5695-12.26-9.3117-5.1214-5.7422-8.0701-13.192-2.7935-7.6045-2.7935-15.83 0-8.5357 2.7935-16.14 2.7935-7.7597 7.6045-13.502 4.9662-5.7422 11.64-9.0013 6.8286-3.4143 14.899-3.4143 10.243 0 18.158 5.4318 7.9149 5.2766 12.416 12.881v-49.352h10.553v99.635q0 4.3454 3.7247 4.3454v9.3117q-2.3279 0.46559-3.7247 0.46559-3.7247 0-6.5182-2.3279-2.7935-2.4831-2.7935-5.8974v-7.9149q-4.811 7.9149-13.036 12.571-8.2253 4.6558-17.071 4.6558zm2.3279-9.3117q3.8799 0 8.2253-1.5519 4.5006-1.552 8.3805-4.1903 3.8799-2.7935 6.5182-6.363 2.7935-3.7247 3.4143-7.9149v-24.986q-1.552-4.1902-4.5006-7.7597-2.9487-3.7247-6.8286-6.5182-3.7247-2.7935-8.0701-4.3454-4.3454-1.552-8.5357-1.552-6.5182 0-11.795 2.7935-5.2766 2.7935-9.1565 7.4494-3.7247 4.5006-5.7422 10.398t-2.0175 12.105q0 6.5182 2.3279 12.416 2.3279 5.8974 6.363 10.398 4.0351 4.3454 9.4669 6.9838 5.587 2.6383 11.95 2.6383z"/>
  <path d="m725.06 210q-8.8461 0-16.14-3.2591-7.2942-3.4143-12.726-9.1565-5.2766-5.7422-8.2253-13.347-2.9487-7.6045-2.9487-15.985 0-8.5357 2.9487-16.14 3.1039-7.6045 8.3805-13.347 5.4318-5.7422 12.726-9.1565t15.985-3.4143q8.6909 0 15.985 3.4143 7.4493 3.4143 12.726 9.1565 5.4318 5.7422 8.3805 13.347 3.1039 7.6045 3.1039 16.14 0 8.3805-2.9487 15.985t-8.3805 13.347q-5.2766 5.7422-12.726 9.1565-7.2941 3.2591-16.14 3.2591zm-29.33-41.59q0 6.8286 2.3279 12.726 2.3279 5.7422 6.2078 10.243 4.0351 4.3454 9.3117 6.8286 5.4318 2.4831 11.484 2.4831 6.0526 0 11.329-2.4831 5.4318-2.6383 9.4669-6.9838 4.0351-4.5006 6.363-10.398t2.3279-12.726q0-6.6734-2.3279-12.571-2.3279-6.0526-6.363-10.398-4.0351-4.5006-9.4669-6.9838-5.2766-2.6383-11.329-2.6383-6.0526 0-11.329 2.6383-5.2766 2.4831-9.3117 6.9838-4.0351 4.5006-6.363 10.553-2.3279 5.8974-2.3279 12.726z"/>
 </g>
 <flowRoot style="word-spacing:0px;letter-spacing:0px" xml:space="preserve" transform="translate(18.084 19.493)" line-height="125%" font-size="40px" font-family="sans-serif" fill="#000000"><flowRegion><rect y="556.19" width="251.24" x="278.96" height="105.69"/></flowRegion><flowPara/></flowRoot>
 <flowRoot style="word-spacing:0px;letter-spacing:0px" xml:space="preserve" transform="matrix(.91154 0 0 .91154 18.084 17.256)" line-height="125%" font-size="40px" font-family="sans-serif" fill="#000000"><flowRegion><rect y="211.39" width="77.97" x="121.29" height="53.713"/></flowRegion><flowPara/></flowRoot>
</svg>
