<?xml version="1.0" encoding="UTF-8" standalone="no"?>
<svg xmlns:inkscape="http://www.inkscape.org/namespaces/inkscape" xmlns:rdf="http://www.w3.org/1999/02/22-rdf-syntax-ns#" xmlns="http://www.w3.org/2000/svg" sodipodi:docname="crucendo_c_web.svg" xmlns:sodipodi="http://sodipodi.sourceforge.net/DTD/sodipodi-0.dtd" inkscape:export-filename="C:\Users\trist\Pictures\TheCrucialTeam\SVG\crucendo_logo.png" height="77.021mm" width="74.547mm" inkscape:export-xdpi="534.73999" version="1" inkscape:export-ydpi="534.73999" xmlns:cc="http://creativecommons.org/ns#" xmlns:xlink="http://www.w3.org/1999/xlink" inkscape:version="0.91 r13725" viewBox="0 0 240.77851 247.04533" xmlns:dc="http://purl.org/dc/elements/1.1/">
 <sodipodi:namedview fit-margin-left="10" inkscape:showpageshadow="false" inkscape:zoom="0.81620549" borderopacity="1" inkscape:current-layer="svg3336" inkscape:cx="275.14648" inkscape:cy="124.29623" borderlayer="false" inkscape:window-maximized="1" showgrid="false" fit-margin-right="10" bordercolor="#666665" inkscape:window-x="-8" guidetolerance="10" objecttolerance="10" inkscape:window-y="-8" fit-margin-bottom="10" inkscape:window-width="1920" inkscape:pageopacity="0" inkscape:pageshadow="2" pagecolor="#efefef" gridtolerance="10" inkscape:window-height="1017" showborder="true" fit-margin-top="10"/>
 <g fill="#fff">
  <g style="shape-rendering:geometricPrecision" transform="matrix(.28709 0 0 .28709 16.222 18.678)">
   <path d="m376.96 44.443a320.96 320.96 0 0 0 -320.96 320.96 320.96 320.96 0 0 0 59.23 185.1 321.06 321.06 0 0 1 -27.824 -129.77 321.06 321.06 0 0 1 321.06 -321.06 321.06 321.06 0 0 1 261.21 135.07 320.96 320.96 0 0 0 -292.72 -190.3z" inkscape:connector-curvature="0" fill="#fff"/>
  </g>
  <g style="shape-rendering:geometricPrecision" transform="matrix(.28709 0 0 .28709 16.222 18.678)">
   <path d="m396.63 122.99a281.97 281.97 0 0 0 -281.97 281.97 281.97 281.97 0 0 0 262.38 280.99 281.11 281.11 0 0 1 -203.97 -270.07 281.11 281.11 0 0 1 281.11 -281.12 281.11 281.11 0 0 1 27.283 1.3652 281.97 281.97 0 0 0 -84.832 -13.143z" inkscape:connector-curvature="0" fill="#fff"/>
  </g>
  <g transform="matrix(.28709 0 0 .28709 16.222 18.678)">
   <path style="shape-rendering:geometricPrecision" d="m262.92 272.96a234.09 234.09 0 0 0 -60.98 157.17 234.09 234.09 0 0 0 234.09 234.09 234.09 234.09 0 0 0 207.25 -125.61 232.98 232.98 0 0 1 -178.56 83.37 232.98 232.98 0 0 1 -232.98 -232.99 232.98 232.98 0 0 1 31.18 -116.03z" inkscape:connector-curvature="0" fill="#fff"/>
  </g>
 </g>
 <flowRoot style="word-spacing:0px;letter-spacing:0px" xml:space="preserve" transform="translate(18.084 19.493)" line-height="125%" font-size="40px" font-family="sans-serif" fill="#000000"><flowRegion><rect y="556.19" width="251.24" x="278.96" height="105.69"/></flowRegion><flowPara/></flowRoot>
 <flowRoot style="word-spacing:0px;letter-spacing:0px" xml:space="preserve" transform="matrix(.91154 0 0 .91154 18.084 17.256)" line-height="125%" font-size="40px" font-family="sans-serif" fill="#000000"><flowRegion><rect y="211.39" width="77.97" x="121.29" height="53.713"/></flowRegion><flowPara/></flowRoot>
</svg>
