<?xml version="1.0" encoding="UTF-8" standalone="no"?>
<svg xmlns:inkscape="http://www.inkscape.org/namespaces/inkscape" xmlns:rdf="http://www.w3.org/1999/02/22-rdf-syntax-ns#" xmlns="http://www.w3.org/2000/svg" sodipodi:docname="journal.svg" height="70mm" width="70mm" version="1.1" xmlns:cc="http://creativecommons.org/ns#" xmlns:dc="http://purl.org/dc/elements/1.1/" inkscape:version="0.91 r13725" viewBox="0 0 248.0315 248.03149" xmlns:sodipodi="http://sodipodi.sourceforge.net/DTD/sodipodi-0.dtd">
 <sodipodi:namedview bordercolor="#666666" inkscape:pageshadow="2" inkscape:window-y="145" pagecolor="#ffffff" inkscape:window-height="684" inkscape:window-maximized="0" inkscape:zoom="1.4" inkscape:window-x="2150" showgrid="false" borderopacity="1.0" inkscape:current-layer="layer1" inkscape:cx="135.73877" inkscape:cy="126.66338" inkscape:window-width="978" inkscape:pageopacity="0.0" inkscape:document-units="px"/>
 <g transform="translate(0 -804.33)" inkscape:groupmode="layer" inkscape:label="Layer 1">
  <path inkscape:connector-curvature="0" fill="#fff" d="m57.797 1030.5c-10.126-1.1015-18.791-7.6383-22.381-16.883-0.5485-1.4126-1.2118-4.4911-1.474-6.8412-0.31427-2.8169-0.4271-27.508-0.33113-72.463 0.16167-75.729-0.08608-69.827 3.2052-76.356 2.0909-4.1478 7.3512-9.0879 11.881-11.158 6.1833-2.8255 7.7721-2.9659 33.578-2.9659 12.667 0 23.028 0.14897 23.025 0.33102-0.004 0.18206-1.0275 2.3668-2.2752 4.855l-2.2686 4.524h-17.975-17.975v62.232 62.232h66.739 66.739l-0.11984-19.53-0.11984-19.53-13.348-0.11682c-13.046-0.11419-13.376-0.13915-14.602-1.1034-1.796-1.4122-11.864-19.795-11.848-21.633 0.0169-1.9508 10.403-20.901 12.135-22.142 1.197-0.85769 1.9804-0.91334 14.579-1.0358l13.314-0.12944v-19.622-19.622h-11.656-11.656l1.0587-2.9792c0.58228-1.6386 1.064-3.8233 1.0706-4.855l0.0118-1.8758h13.362c14.333 0 15.662 0.17461 17.184 2.2584 0.67039 0.91787 0.75051 3.4671 0.75051 23.88v22.853h2.0858c2.7153 0 4.869 0.89095 5.9893 2.4776 0.85842 1.2158 0.89948 2.1524 0.89948 20.517 0 20.423-0.0275 20.699-2.203 22.001-0.5482 0.32832-2.3997 0.69321-4.1143 0.81086l-3.1176 0.21391v23.245 23.245l-3.0291 3.0665c-9.4172 9.5332-9.3326 22.387 0.21125 32.089 2.9107 2.9589 3.048 3.1968 3.048 5.2812 0 1.9076-0.18947 2.3451-1.503 3.4707l-1.503 1.2878-45.671 0.01c-25.119 0-57.58 0.073-72.135 0.1537-14.555 0.081-27.857 0-29.56-0.1896zm133.93-10.453c-3.2669-6.122-4.2085-9.6962-4.2438-16.11l-0.0285-5.186h-64.239-64.239l-2.1571 1.3702c-1.5405 0.9786-2.4748 1.2938-3.2684 1.1027-1.6937-0.4076-2.5563-1.4909-2.5563-3.2101 0-1.7703 1.5421-3.4368 4.4721-4.8329 1.6729-0.79711 4.3346-0.83822 68.006-1.0503l66.265-0.22068 1.0831-1.883 1.0831-1.883-67.578 0.11752-67.578 0.11751-2.6317 1.1829c-3.4856 1.5667-6.9552 4.7476-8.5179 7.8092-1.1246 2.2033-1.268 2.9809-1.2722 6.8969-0.0039 3.9386 0.13314 4.6827 1.2754 6.9134 2.4188 4.7235 7.0807 7.9984 12.461 8.7539 3.0959 0.4347 133.9 0.5437 133.66 0.1114zm-146.02-37.13c0.57511-0.8924 6.5613-3.4645 9.3476-4.0164l2.8416-0.56286v-12.27c0-7.4059-0.17234-12.27-0.43474-12.27-0.7204 0-7.3337 2.9915-8.7473 3.9568-0.72479 0.49492-1.9584 1.8273-2.7413 2.9608l-1.4235 2.061v10.296c0 9.4737 0.21548 11.306 1.1577 9.844zm5.8688-34.775c1.3246-0.47239 3.2886-0.99939 4.3644-1.1711l1.956-0.3122v-30.231c0-16.627-0.15533-30.158-0.34518-30.069-0.18984 0.0893-1.2772 0.54283-2.4162 1.0077-4.6141 1.8831-6.7163 3.212-8.6153 5.446l-1.9701 2.3177v28.459 28.459l2.309-1.5232c1.27-0.83775 3.3928-1.9097 4.7174-2.3821zm155.44-32.483v-12.54l-15.303 0.0712-15.303 0.0713-3.3321 5.9584c-1.8326 3.2771-3.3342 6.2122-3.3367 6.5224-0.003 0.31019 1.4632 3.2397 3.2572 6.5101l3.2618 5.9461h15.378 15.378v-12.54zm-21.861 6.8243c-2.8226-1.1134-4.7698-4.693-4.1834-7.6906 0.65338-3.34 4.618-5.9153 8.2102-5.3333 2.0899 0.3386 4.5832 2.2648 5.4103 4.1796 0.76436 1.7697 0.35606 4.8929-0.85242 6.5204-1.7137 2.308-5.8123 3.4175-8.5847 2.3238zm-134.77-41.44c1.7252-0.52135 4.1205-1.0766 5.3228-1.234l2.1861-0.28603v-12.519c0-6.8854-0.17022-12.519-0.37825-12.519-0.20804 0-1.3617 0.32136-2.5637 0.71413-2.9788 0.97335-7.2538 4.8364-8.8916 8.0348-1.2633 2.4669-1.2855 2.6514-1.4308 11.87l-0.14763 9.3646 1.3832-1.2391c0.76963-0.68946 2.7746-1.6596 4.5199-2.187zm34.754 80.414c-2.7482-1.331-2.8467-1.8386-3.7875-19.519-0.47331-8.8952-0.91105-17.961-0.97275-20.145l-0.11218-3.9723 7.9786-16.33c4.3882-8.9817 9.5782-19.608 11.533-23.613 26.54-54.373 24.027-49.457 26.279-51.409 3.3819-2.93 7.8866-3.9979 13.843-3.2815 7.8605 0.94539 15.802 4.6244 21.354 9.8918 4.7821 4.5375 5.9535 6.7632 5.9237 11.255l-0.022 3.3102-7.0507 14.344c-3.8779 7.8894-12.427 25.367-18.999 38.84-17.17 35.2-17.076 35.009-17.686 35.906-0.46646 0.68578-27.305 20.479-32.401 23.896-2.1921 1.4697-4.0211 1.7267-5.8805 0.82615zm19.833-23.53c5.4977-3.9935 9.9819-7.4692 9.965-7.7239-0.0169-0.25466-1.4785-1.6547-3.2478-3.1112-6.2697-5.161-6.6161-5.3695-9.45-5.6889-5.197-0.58575-4.9999-0.13025-2.3765-5.4935 1.2662-2.5886 5.1617-10.566 8.6566-17.727 3.4949-7.1611 8.1996-16.794 10.455-21.406 2.2554-4.6122 7.2674-14.869 11.138-22.792l7.0372-14.406 3.7519 1.668c2.0635 0.91741 6.0071 2.6831 8.7635 3.9238 2.7564 1.2406 5.1846 2.2557 5.396 2.2557 0.73117 0 1.8668-2.731 1.5843-3.8102-1.3121-5.0135-15.89-11.862-21.93-10.302-1.6755 0.43266-1.7388 0.53612-7.22 11.798-3.0414 6.2491-10.335 21.193-16.207 33.209-5.8726 12.016-12.857 26.309-15.522 31.761l-4.8446 9.9137 0.58854 12.066 0.58854 12.066 1.1945 0.62169c0.657 0.34193 1.3046 0.58047 1.439 0.53008 0.13447-0.0504 4.7426-3.359 10.24-7.3525z"/>
 </g>
</svg>
