<?xml version="1.0" encoding="UTF-8" standalone="no"?>
<svg xmlns:inkscape="http://www.inkscape.org/namespaces/inkscape" xmlns:rdf="http://www.w3.org/1999/02/22-rdf-syntax-ns#" xmlns="http://www.w3.org/2000/svg" sodipodi:docname="tracks.svg" height="70mm" width="70mm" version="1.1" xmlns:cc="http://creativecommons.org/ns#" xmlns:dc="http://purl.org/dc/elements/1.1/" inkscape:version="0.91 r13725" viewBox="0 0 248.0315 248.03149" xmlns:sodipodi="http://sodipodi.sourceforge.net/DTD/sodipodi-0.dtd">
 <sodipodi:namedview bordercolor="#666666" inkscape:pageshadow="2" inkscape:window-y="-8" fit-margin-left="0" pagecolor="#ffffff" fit-margin-top="0" inkscape:window-maximized="1" inkscape:zoom="1.979899" inkscape:window-x="1912" inkscape:window-height="1017" showgrid="false" borderopacity="1.0" inkscape:current-layer="layer2" inkscape:cx="68.998946" inkscape:cy="214.13161" fit-margin-right="0" fit-margin-bottom="0" inkscape:window-width="1920" inkscape:pageopacity="0.3254902" inkscape:document-units="px"/>
 <g transform="translate(-233.9 -53.259)" inkscape:groupmode="layer" inkscape:label="svg" fill="#fff">
  <path d="m362.29 80.358 2.3496 0.003 106.99 199.5h-30.177z" sodipodi:nodetypes="ccccc" inkscape:connector-curvature="0"/>
  <path d="m352.55 80.427-2.5241-0.01193-106.14 199.45h30.177z" sodipodi:nodetypes="ccccc" inkscape:connector-curvature="0"/>
  <g transform="matrix(.89889 0 0 1.1478 32.935 -65.968)">
   <path d="m248.8 243.29h223.73l15.657 16.62h-254.29zm-14.868 16.573h254.29v15.357h-254.29z" sodipodi:nodetypes="cccccccccc" inkscape:connector-curvature="0" fill="#fff"/>
  </g>
  <g transform="matrix(.62742 0 0 .80118 130.78 -28.776)">
   <path d="m248.8 243.29h223.73l15.657 16.62h-254.29zm-14.868 16.573h254.29v15.357h-254.29z" sodipodi:nodetypes="cccccccccc" inkscape:connector-curvature="0" fill="#fff"/>
  </g>
  <g transform="matrix(.43639 0 0 .55725 199.86 -3.4538)">
   <path d="m248.8 243.29h223.73l15.657 16.62h-254.29zm-14.868 16.573h254.29v15.357h-254.29z" sodipodi:nodetypes="cccccccccc" inkscape:connector-curvature="0" fill="#fff"/>
  </g>
  <g transform="matrix(.27858 0 0 .35573 257.05 22.05)">
   <path d="m248.8 243.29h223.73l15.657 16.62h-254.29zm-14.868 16.573h254.29v15.357h-254.29z" sodipodi:nodetypes="cccccccccc" inkscape:connector-curvature="0" fill="#fff"/>
  </g>
  <g transform="matrix(.18423 0 0 .23525 290.51 35.153)">
   <path d="m248.8 243.29h223.73l15.657 16.62h-254.29zm-14.868 16.573h254.29v15.357h-254.29z" sodipodi:nodetypes="cccccccccc" inkscape:connector-curvature="0" fill="#fff"/>
  </g>
 </g>
</svg>
